<?xml version="1.0" encoding="utf-8"?>
<!-- Generator: Adobe Illustrator 26.5.0, SVG Export Plug-In . SVG Version: 6.00 Build 0)  -->
<svg version="1.1" id="Layer_1" xmlns="http://www.w3.org/2000/svg" xmlns:xlink="http://www.w3.org/1999/xlink" x="0px" y="0px"
	 viewBox="0 0 325.58 381.4" style="enable-background:new 0 0 325.58 381.4;" xml:space="preserve">
<style type="text/css">
	.st0{fill:none;stroke:#FBB040;stroke-miterlimit:10;}
	.st1{fill:#FBB040;stroke:#FBB040;stroke-miterlimit:10;}
	.st2{fill:none;}
	.st3{fill:#E5B558;stroke:#FBB040;stroke-miterlimit:10;}
	.st4{font-family:'Superclarendon-Bold';}
	.st5{font-size:25px;}
</style>
<ellipse class="st0" cx="162.79" cy="190.7" rx="162.79" ry="190.7"/>
<circle class="st1" cx="162.79" cy="148.29" r="52.91"/>
<line class="st0" x1="106.39" y1="53.74" x2="129.58" y2="90.1"/>
<line class="st0" x1="151.71" y1="84.3" x2="146.97" y2="53.74"/>
<line class="st0" x1="177.01" y1="84.3" x2="185.44" y2="48.47"/>
<line class="st0" x1="200.72" y1="90.1" x2="218.64" y2="69.02"/>
<line class="st0" x1="218.64" y1="107.49" x2="256.58" y2="90.1"/>
<line class="st0" x1="226.54" y1="125.41" x2="256.58" y2="125.41"/>
<line class="st0" x1="230.23" y1="148.29" x2="272.39" y2="152.81"/>
<line class="st0" x1="226.54" y1="169.68" x2="248.15" y2="177.58"/>
<line class="st0" x1="159.09" y1="215.53" x2="159.09" y2="255.58"/>
<line class="st0" x1="109.88" y1="98.8" x2="87.42" y2="79.56"/>
<line class="st0" x1="98.65" y1="119.61" x2="56.85" y2="92.74"/>
<line class="st0" x1="98.65" y1="135.64" x2="68.64" y2="135.64"/>
<line class="st0" x1="98.65" y1="152.81" x2="51.44" y2="162.02"/>
<line class="st0" x1="98.65" y1="169.68" x2="75.04" y2="180.37"/>
<line class="st0" x1="106.39" y1="186.11" x2="77.75" y2="206.76"/>
<line class="st0" x1="117.98" y1="201.19" x2="103.63" y2="215.53"/>
<line class="st0" x1="129.58" y1="210.63" x2="110.81" y2="235.55"/>
<line class="st0" x1="143.2" y1="215.53" x2="138.04" y2="235.55"/>
<line class="st0" x1="177.01" y1="215.53" x2="181.22" y2="232.57"/>
<line class="st0" x1="194.82" y1="210.63" x2="218.64" y2="238.87"/>
<line class="st0" x1="206.73" y1="201.19" x2="223.5" y2="215.53"/>
<line class="st0" x1="218.64" y1="190.7" x2="251.31" y2="206.76"/>
<rect x="42.94" y="284.31" class="st2" width="239.7" height="71.12"/>
<text transform="matrix(1 0 0 1 79.0794 303.5629)"><tspan x="0" y="0" class="st3 st4 st5">SAN DIEGO</tspan><tspan x="20.74" y="30" class="st3 st4 st5">EATERY</tspan></text>
</svg>
